<svg width="189" height="31" viewBox="0 0 189 31" fill="none" xmlns="http://www.w3.org/2000/svg">
<path d="M13.92 23.296C13.408 23.616 12.7787 23.8613 12.032 24.032C11.3067 24.2027 10.528 24.288 9.696 24.288C7.43467 24.288 5.696 23.7333 4.48 22.624C3.264 21.5147 2.656 19.8613 2.656 17.664V11.84H0.128V7.296H2.656V2.784H8.736V7.296H12.704V11.84H8.736V17.6C8.736 18.2187 8.896 18.7093 9.216 19.072C9.55733 19.4133 10.0053 19.584 10.56 19.584C11.264 19.584 11.8827 19.4027 12.416 19.04L13.92 23.296ZM26.2805 6.368C28.4352 6.368 30.1632 7.008 31.4645 8.288C32.7872 9.568 33.4485 11.4987 33.4485 14.08V24H27.3685V15.072C27.3685 12.704 26.4192 11.52 24.5205 11.52C23.4752 11.52 22.6325 11.8613 21.9925 12.544C21.3738 13.2267 21.0645 14.2507 21.0645 15.616V24H14.9845V0.255999H21.0645V8.256C21.7258 7.63733 22.5045 7.168 23.4005 6.848C24.2965 6.528 25.2565 6.368 26.2805 6.368ZM53.9637 15.36C53.9637 15.4027 53.9317 15.904 53.8678 16.864H41.2597C41.5157 17.76 42.0064 18.4533 42.7317 18.944C43.4784 19.4133 44.4064 19.648 45.5157 19.648C46.3477 19.648 47.0624 19.5307 47.6597 19.296C48.2784 19.0613 48.8971 18.6773 49.5157 18.144L52.7157 21.472C51.0304 23.3493 48.5664 24.288 45.3237 24.288C43.2971 24.288 41.5157 23.904 39.9797 23.136C38.4437 22.368 37.2491 21.3013 36.3957 19.936C35.5637 18.5707 35.1477 17.024 35.1477 15.296C35.1477 13.5893 35.5531 12.064 36.3637 10.72C37.1957 9.35467 38.3371 8.288 39.7877 7.52C41.2384 6.752 42.8704 6.368 44.6837 6.368C46.4117 6.368 47.9797 6.73067 49.3877 7.456C50.7957 8.16 51.9051 9.19467 52.7157 10.56C53.5477 11.904 53.9637 13.504 53.9637 15.36ZM44.7157 10.688C43.7771 10.688 42.9877 10.9547 42.3477 11.488C41.7291 12.0213 41.3344 12.7467 41.1637 13.664H48.2677C48.0971 12.7467 47.6917 12.0213 47.0517 11.488C46.4331 10.9547 45.6544 10.688 44.7157 10.688ZM70.9115 6.368C73.7915 6.368 75.9888 7.02933 77.5035 8.352C79.0182 9.65333 79.7755 11.6587 79.7755 14.368V24H74.1115V21.76C73.2368 23.4453 71.5302 24.288 68.9915 24.288C67.6475 24.288 66.4848 24.0533 65.5035 23.584C64.5222 23.1147 63.7755 22.4853 63.2635 21.696C62.7728 20.8853 62.5275 19.968 62.5275 18.944C62.5275 17.3013 63.1568 16.032 64.4155 15.136C65.6742 14.2187 67.6155 13.76 70.2395 13.76H73.6955C73.5888 11.9253 72.3622 11.008 70.0155 11.008C69.1835 11.008 68.3408 11.1467 67.4875 11.424C66.6342 11.68 65.9088 12.0427 65.3115 12.512L63.2635 8.384C64.2235 7.744 65.3862 7.25333 66.7515 6.912C68.1382 6.54933 69.5248 6.368 70.9115 6.368ZM70.6875 20.448C71.3915 20.448 72.0102 20.2773 72.5435 19.936C73.0768 19.5947 73.4608 19.0933 73.6955 18.432V16.928H71.0715C69.3008 16.928 68.4155 17.5147 68.4155 18.688C68.4155 19.2213 68.6182 19.648 69.0235 19.968C69.4288 20.288 69.9835 20.448 70.6875 20.448ZM88.1252 8.736C88.7439 7.94667 89.5439 7.36 90.5252 6.976C91.5279 6.57067 92.6692 6.368 93.9492 6.368V11.84C93.3946 11.776 92.9359 11.744 92.5732 11.744C91.2719 11.744 90.2479 12.096 89.5012 12.8C88.7759 13.504 88.4132 14.5813 88.4132 16.032V24H82.3332V6.656H88.1252V8.736ZM100.97 8.736C101.589 7.94667 102.389 7.36 103.37 6.976C104.373 6.57067 105.514 6.368 106.794 6.368V11.84C106.24 11.776 105.781 11.744 105.418 11.744C104.117 11.744 103.093 12.096 102.346 12.8C101.621 13.504 101.258 14.5813 101.258 16.032V24H95.1782V6.656H100.97V8.736ZM115.29 6.368C118.17 6.368 120.368 7.02933 121.882 8.352C123.397 9.65333 124.154 11.6587 124.154 14.368V24H118.49V21.76C117.616 23.4453 115.909 24.288 113.37 24.288C112.026 24.288 110.864 24.0533 109.882 23.584C108.901 23.1147 108.154 22.4853 107.642 21.696C107.152 20.8853 106.906 19.968 106.906 18.944C106.906 17.3013 107.536 16.032 108.794 15.136C110.053 14.2187 111.994 13.76 114.618 13.76H118.074C117.968 11.9253 116.741 11.008 114.394 11.008C113.562 11.008 112.72 11.1467 111.866 11.424C111.013 11.68 110.288 12.0427 109.69 12.512L107.642 8.384C108.602 7.744 109.765 7.25333 111.13 6.912C112.517 6.54933 113.904 6.368 115.29 6.368ZM115.066 20.448C115.77 20.448 116.389 20.2773 116.922 19.936C117.456 19.5947 117.84 19.0933 118.074 18.432V16.928H115.45C113.68 16.928 112.794 17.5147 112.794 18.688C112.794 19.2213 112.997 19.648 113.402 19.968C113.808 20.288 114.362 20.448 115.066 20.448ZM144.672 6.656L137.184 24.704C136.309 26.8373 135.242 28.3307 133.984 29.184C132.725 30.0587 131.189 30.496 129.376 30.496C128.458 30.496 127.53 30.3467 126.592 30.048C125.674 29.7707 124.928 29.3973 124.352 28.928L126.464 24.672C126.805 24.992 127.21 25.2373 127.68 25.408C128.17 25.6 128.661 25.696 129.152 25.696C129.728 25.696 130.197 25.5787 130.56 25.344C130.944 25.1093 131.264 24.736 131.52 24.224L124.096 6.656H130.336L134.592 17.248L138.88 6.656H144.672ZM153.284 0.255999H163.076V4.896H159.364V25.568H163.076V30.208H153.284V0.255999ZM178.65 30.208V25.568H182.362V4.896H178.65V0.255999H188.442V30.208H178.65Z" fill="white"/>
</svg>